
<svg width="314px" height="314px" viewBox="0 0 314 314" version="1.1" xmlns="http://www.w3.org/2000/svg" xmlns:xlink="http://www.w3.org/1999/xlink">
    <!-- Generator: Sketch 48.2 (47327) - http://www.bohemiancoding.com/sketch -->
    <desc>Created with Sketch.</desc>
    <defs></defs>
    <g id="Icons" stroke="none" stroke-width="1" fill="none" fill-rule="evenodd">
        <g id="writting-file" fill="#EDEDED" fill-rule="nonzero">
            <g id="question-mark-sign">
                <path d="M267.592,45.853 C238.019,16.282 198.65,0 156.719,0 C114.791,0 75.414,16.282 45.85,45.853 C-15.282,106.978 -15.282,206.457 45.85,267.591 C75.421,297.165 114.791,313.445 156.72,313.45 C156.729,313.45 156.729,313.45 156.741,313.45 C198.651,313.45 238.025,297.171 267.593,267.591 C297.166,238.024 313.451,198.651 313.451,156.728 C313.45,114.806 297.165,75.42 267.592,45.853 Z M163.898,235.009 L144.982,235.009 L144.982,213.578 L163.898,213.578 L163.898,235.009 Z M198.675,131.886 C196.772,137.077 194.177,141.677 190.875,145.673 C187.86,149.669 184.317,153.777 180.246,157.989 C176.241,162.273 172.164,167.083 168.02,172.415 C166.548,174.733 165.39,177.189 164.555,179.783 C163.57,185.679 163.219,191.78 163.495,198.104 L144.988,198.104 C144.847,187.445 145.868,179.291 148.032,173.67 C150.203,168.066 154.857,161.396 162.003,153.677 C164.879,150.377 167.683,147.147 170.403,143.988 C174.258,139.358 177.2,134.9 179.236,130.613 C181.271,126.265 182.287,121.143 182.287,115.247 C182.287,108.509 180.689,102.402 177.495,96.929 C174.018,91.524 168.26,88.721 160.237,88.513 C149.164,88.861 141.889,92.62 138.409,99.775 C136.563,103.072 135.314,106.792 134.68,110.932 C133.827,115.285 133.41,119.741 133.41,124.304 L115.345,124.304 C114.783,110.727 117.846,99.006 124.529,89.134 C131.059,79.055 142.084,73.882 157.591,73.594 C170.871,73.735 181.409,77.338 189.203,84.403 C197.057,91.537 201.062,101.399 201.201,113.994 C201.203,121.008 200.356,126.974 198.675,131.886 Z" id="Shape"></path>
            </g>
        </g>
    </g>
</svg>